# WaveFront *.obj file (generated by CINEMA 4D)

mtllib ./EpdmTop.mtl

v 194.55767822265625 88.525146484375 49.26153182983398
v 194.55767822265625 88.50119018554688 48.99457931518555
v 194.55767822265625 88.46050262451172 48.72695541381836
v 194.55767822265625 88.40195465087891 48.45856475830078
v 194.55767822265625 88.32576751708984 48.19217300415039
v 194.55767822265625 88.23423004150391 47.93496704101562
v 194.55767822265625 88.12950897216797 47.69340896606445
v 194.55767822265625 88.01335144042969 47.47344970703125
v 194.55767822265625 87.91165924072266 47.26862716674805
v 194.55767822265625 87.80032348632812 47.05615997314453
v 194.55767822265625 87.68739318847656 46.8031120300293
v 194.55767822265625 87.57199859619141 46.47084045410156
v 194.55767822265625 87.485595703125 45.9827995300293
v 194.55767822265625 87.46086883544922 45.21389770507812
v 194.55767822265625 87.44942474365234 44.110107421875
v 194.52986145019531 88.13515472412109 49.27646255493164
v 194.52986145019531 88.11278533935547 49.03572845458984
v 194.52986145019531 88.07548522949219 48.79560470581055
v 194.52986145019531 88.02222442626953 48.55548477172852
v 194.52986145019531 87.95301055908203 48.31679916381836
v 194.52986145019531 87.87010192871094 48.08621978759766
v 194.52986145019531 87.77625274658203 47.87221527099609
v 194.52986145019531 87.69528961181641 47.68237686157227
v 194.52986145019531 87.60381317138672 47.49987411499023
v 194.52986145019531 87.48960113525391 47.28755950927734
v 194.52986145019531 87.36343383789062 47.01716613769531
v 194.52986145019531 87.23105621337891 46.65467834472656
v 194.52986145019531 87.12156677246094 46.10434722900391
v 194.52986145019531 87.07389831542969 45.26853942871094
v 194.52986145019531 87.05922698974609 44.110107421875
v 194.55767822265625 88.525146484375 49.49698638916016
v 194.55767822265625 88.50119018554688 49.76394271850586
v 194.55767822265625 88.46050262451172 50.03156280517578
v 194.55767822265625 88.40195465087891 50.29995727539062
v 194.55767822265625 88.32576751708984 50.56634902954102
v 194.55767822265625 88.23423004150391 50.82355499267578
v 194.55767822265625 88.12950897216797 51.06511306762695
v 194.55767822265625 88.01335144042969 51.28512191772461
v 194.55767822265625 87.91165924072266 51.48989105224609
v 194.55767822265625 87.80032348632812 51.70235824584961
v 194.55767822265625 87.68739318847656 51.95541000366211
v 194.55767822265625 87.57199859619141 52.2877311706543
v 194.55767822265625 87.485595703125 52.77572250366211
v 194.55767822265625 87.46086883544922 53.54462432861328
v 194.55767822265625 87.44942474365234 54.64476776123047
v 194.52986145019531 88.13515472412109 49.48210525512695
v 194.52986145019531 88.11278533935547 49.72279357910156
v 194.52986145019531 88.07548522949219 49.96291351318359
v 194.52986145019531 88.02222442626953 50.20303726196289
v 194.52986145019531 87.95301055908203 50.4417724609375
v 194.52986145019531 87.87010192871094 50.67234802246094
v 194.52986145019531 87.77625274658203 50.88630294799805
v 194.52986145019531 87.69528961181641 51.07614517211914
v 194.52986145019531 87.60381317138672 51.25864791870117
v 194.52986145019531 87.48960113525391 51.4709587097168
v 194.52986145019531 87.36348724365234 51.74135208129883
v 194.52986145019531 87.23105621337891 52.10384368896484
v 194.52986145019531 87.12156677246094 52.65417098999023
v 194.52986145019531 87.07389831542969 53.49003219604492
v 194.52986145019531 87.05922698974609 54.64476776123047
v 192.33096313476562 87.44942474365234 -4.84321403503418
v 192.30345153808594 87.05922698974609 -4.84321403503418
v 192.30345153808594 87.05922698974609 103.59814453125
v 192.33096313476562 87.44942474365234 103.59803771972656
v -117.25235748291016 87.45335388183594 103.59803771972656
v -117.25235748291016 87.06315612792969 103.59814453125
v -117.25236511230469 87.06315612792969 54.64476776123047
v -117.25236511230469 87.07784271240234 53.49053192138672
v -117.25236511230469 87.12077331542969 52.65534210205078
v -117.25236511230469 87.22637176513672 52.10568618774414
v -117.25236511230469 87.35502624511719 51.74352645874023
v -117.25236511230469 87.4774169921875 51.47325897216797
v -117.25236511230469 87.59042358398438 51.26099014282227
v -117.25236511230469 87.68194580078125 51.07819747924805
v -117.25236511230469 87.77985382080078 50.88810729980469
v -117.25236511230469 87.873779296875 50.67385864257812
v -117.25236511230469 87.95681762695312 50.44302749633789
v -117.25236511230469 88.02607727050781 50.20403671264648
v -117.25236511230469 88.07941436767578 49.963623046875
v -117.25236511230469 88.11676025390625 49.72320938110352
v -117.25236511230469 88.13908386230469 49.48223114013672
v -117.25236511230469 88.13908386230469 49.27629852294922
v -117.25236511230469 88.11676025390625 49.03530883789062
v -117.25236511230469 88.07941436767578 48.79493713378906
v -117.25236511230469 88.02607727050781 48.55448150634766
v -117.25236511230469 87.95681762695312 48.31554412841797
v -117.25236511230469 87.873779296875 48.08467102050781
v -117.25236511230469 87.77985382080078 47.87041473388672
v -117.25236511230469 87.68194580078125 47.68032455444336
v -117.25236511230469 87.59033966064453 47.49757385253906
v -117.25236511230469 87.4774169921875 47.28526306152344
v -117.25236511230469 87.35501861572266 47.01499176025391
v -117.25236511230469 87.22637176513672 46.65283966064453
v -117.25236511230469 87.12077331542969 46.10317230224609
v -117.25236511230469 87.07784271240234 45.26799392700195
v -117.25236511230469 87.06315612792969 44.110107421875
v -117.25235748291016 87.06315612792969 -4.84321403503418
v -117.25235748291016 87.45335388183594 -4.84313106536865
v -117.25236511230469 87.45335388183594 44.11015319824219
v -117.25236511230469 87.46475982666016 45.21331024169922
v -117.25236511230469 87.48907470703125 45.98154449462891
v -117.25236511230469 87.57518005371094 46.46895599365234
v -117.25236511230469 87.69019317626953 46.80093383789062
v -117.25236511230469 87.80283355712891 47.05377960205078
v -117.25236511230469 87.91492462158203 47.26624298095703
v -117.25236511230469 88.01673889160156 47.47127532958984
v -117.25236511230469 88.13302612304688 47.69156646728516
v -117.25236511230469 88.23787689208984 47.93337249755859
v -117.25236511230469 88.32953643798828 48.19087600708008
v -117.25236511230469 88.40580749511719 48.45755767822266
v -117.25236511230469 88.46439361572266 48.72620010375977
v -117.25236511230469 88.50508117675781 48.99411773681641
v -117.25236511230469 88.52908325195312 49.26136779785156
v -117.25236511230469 88.52908325195312 49.4971923828125
v -117.25236511230469 88.50508117675781 49.764404296875
v -117.25236511230469 88.46439361572266 50.03231811523438
v -117.25236511230469 88.40580749511719 50.30100250244141
v -117.25236511230469 88.32953643798828 50.56764602661133
v -117.25236511230469 88.23787689208984 50.82514190673828
v -117.25236511230469 88.13302612304688 51.06695556640625
v -117.25236511230469 88.01673889160156 51.28725814819336
v -117.25236511230469 87.91492462158203 51.49227905273438
v -117.25236511230469 87.80283355712891 51.70474243164062
v -117.25236511230469 87.69019317626953 51.95758438110352
v -117.25236511230469 87.57518005371094 52.28957366943359
v -117.25236511230469 87.48907470703125 52.7769775390625
v -117.25236511230469 87.46475982666016 53.54520797729492
v -117.25236511230469 87.45335388183594 54.64476776123047
v -117.25236511230469 87.06315612792969 71.84852600097656
v 193.7474365234375 87.05922698974609 71.84852600097656
v 193.775146484375 87.44942474365234 71.84849548339844
v -117.25236511230469 87.45335388183594 71.84849548339844
v -128.3955078125 87.06315612792969 103.59814453125
v -128.39552307128906 87.06315612792969 71.84852600097656
v -128.3955078125 87.45335388183594 103.59803771972656
v -128.39552307128906 87.45335388183594 71.84849548339844
# 136 vertices

vn 0 0.00009375292575 -1
vn 0 0.99599504470825 -0.0894086137414
vn 0 0.98865216970444 -0.15022288262844
vn 0 0.9770382642746 -0.21306402981281
vn 0 0.9614520072937 -0.27497288584709
vn 0 0.94210547208786 -0.33531665802002
vn 0 0.91748988628387 -0.39775916934013
vn 0 0.88430124521256 -0.46691679954529
vn 0 0.89566749334335 -0.44472435116768
vn 0 0.88510930538177 -0.46538320183754
vn 0 0.91332763433456 -0.40722551941872
vn 0 0.94478565454483 -0.32768902182579
vn 0 0.98471713066101 -0.17416147887707
vn 0 0.99949181079864 -0.03187573701143
vn 0 0.99994647502899 -0.01034384313971
vn 0.99747109413147 -0.07078141719103 0.00643751490861
vn 0.99747771024704 -0.07015687227249 0.01078134682029
vn 0.99748533964157 -0.0692198947072 0.01521900203079
vn 0.99749338626862 -0.06800168007612 0.01956298202276
vn 0.99750989675522 -0.06640691310167 0.02375023625791
vn 0.99752897024155 -0.06440812349319 0.02806331589818
vn 0.99742299318314 -0.064657330513 0.03109427168965
vn 0.99731177091599 -0.0655645057559 0.03271975368261
vn 0.99735629558563 -0.06418830156326 0.03406292945147
vn 0.99734950065613 -0.06618788093328 0.03021892346442
vn 0.99733078479767 -0.06878250837326 0.02450044825673
vn 0.99725580215454 -0.07275042682886 0.01371883042157
vn 0.9973196387291 -0.07309427112341 0.00328127341345
vn 0.99745583534241 -0.07128255814314 0.00081251497613
vn 0 -0.99572712182999 0.0923445224762
vn 0 -0.98814809322357 0.15350358188152
vn 0 -0.97627449035645 0.21653668582439
vn 0 -0.960444688797 0.27847084403038
vn 0 -0.94102001190186 0.33835092186928
vn 0 -0.91582852602005 0.40156954526901
vn 0 -0.90474647283554 0.42595052719116
vn 0.00003125049989 -0.89398300647736 0.44810086488724
vn 0.00003125089643 -0.88177525997162 0.47166979312897
vn 0 -0.90857398509979 0.41772401332855
vn 0 -0.90858578681946 0.41769823431969
vn 0 -0.94082921743393 0.33888101577759
vn 0 -0.98141890764236 0.19187746942043
vn 0 -0.99853414297104 0.05412515997887
vn 0 -0.99991989135742 0.01265642326325
vn 0 0.0002500078117 0.99999994039536
vn 0 0.99599504470825 0.0894086137414
vn 0 0.98865216970444 0.15022288262844
vn 0 0.9770382642746 0.21306402981281
vn 0 0.9614520072937 0.27497288584709
vn 0 0.94210547208786 0.33531665802002
vn 0 0.91748988628387 0.39775916934013
vn 0 0.88433384895325 0.46685501933098
vn 0 0.89563643932343 0.44478690624237
vn 0 0.88510930538177 0.46538320183754
vn 0 0.91332763433456 0.40722551941872
vn 0 0.94479531049728 0.32766112685204
vn 0 0.98471713066101 0.17416147887707
vn 0 0.99949181079864 0.03187573701143
vn 0 0.99994617700577 0.01037508994341
vn 0.99746870994568 -0.0708147212863 -0.00643770163879
vn 0.99747550487518 -0.07018797844648 -0.01078132260591
vn 0.9974809885025 -0.06928209960461 -0.01521893683821
vn 0.99749553203583 -0.06797057390213 -0.0195630248636
vn 0.99751198291779 -0.0663757994771 -0.02375028468668
vn 0.99752694368362 -0.06443924456835 -0.02806325815618
vn 0.99742096662521 -0.06468845158815 -0.03109420835972
vn 0.99730968475342 -0.06559561938047 -0.03271968662739
vn 0.99735832214355 -0.06415718048811 -0.03406299650669
vn 0.99734950065613 -0.06618788093328 -0.03021892346442
vn 0.99733293056488 -0.06875140964985 -0.02450050227344
vn 0.99725580215454 -0.07275042682886 -0.01371883042157
vn 0.9973196387291 -0.07309427112341 -0.00328127341345
vn 0.99745362997055 -0.07131365686655 -0.0008125131717
vn 0 -0.99572712182999 -0.0923445224762
vn 0 -0.98815286159515 -0.1534730643034
vn 0 -0.97627449035645 -0.21653668582439
vn 0 -0.96046137809753 -0.27841320633888
vn 0 -0.94101005792618 -0.33837860822678
vn 0 -0.91581201553345 -0.40160721540451
vn 0 -0.90474647283554 -0.42595052719116
vn 0.00003125050716 -0.89410817623138 -0.44785100221634
vn 0.00003125071817 -0.88167643547058 -0.47185453772545
vn 0 -0.9086149930954 -0.417634755373
vn 0 -0.94080573320389 -0.33894631266594
vn 0 -0.98141300678253 -0.19190755486488
vn 0 -0.99853414297104 -0.05412515997887
vn 0 -0.99991953372955 -0.01268766820431
vn 0 1 0
vn 0 -1 0
vn 0.9974650144577 -0.07115821540356 0
vn 0.99647098779678 -0.07065641134977 -0.04531260579824
vn 0.99648416042328 -0.07046984881163 0.04531320556998
vn 0.99647319316864 -0.07062532007694 0.04531270638108
vn 0.99645537137985 -0.07087626308203 0.0453133136034
vn -1 0 0
vn -1 0 0
vn 0 -1 0
vn 0 1 0
vn 0 -0.00006250195293 -1
# 99 normals

vt 0.42109701037407 0.25 0
vt 0.625 0.25 0
vt 0.625 0 0
vt 0.42109701037407 0 0
# 4 texture coordinates

o EpdmTop
usemtl Epdm
f 98/4/1 61/3/1 62/2/1 97/1/1
f 113/4/2 1/3/2 2/3/2 112/4/2
f 112/4/3 2/3/3 3/3/3 111/4/3
f 111/4/4 3/3/4 4/3/4 110/4/4
f 110/4/5 4/3/5 5/3/5 109/4/5
f 109/4/6 5/3/6 6/3/6 108/4/6
f 108/4/7 6/3/7 7/3/7 107/4/7
f 107/4/8 7/3/8 8/3/8 106/4/8
f 106/4/9 8/3/9 9/3/9 105/4/9
f 105/4/10 9/3/10 10/3/10 104/4/10
f 104/4/11 10/3/11 11/3/11 103/4/11
f 103/4/12 11/3/12 12/3/12 102/4/12
f 102/4/13 12/3/13 13/3/13 101/4/13
f 101/4/14 13/3/14 14/3/14 100/4/14
f 100/4/15 14/3/15 15/3/15 99/4/15
f 1/3/16 16/2/16 17/2/16 2/3/16
f 2/3/17 17/2/17 18/2/17 3/3/17
f 3/3/18 18/2/18 19/2/18 4/3/18
f 4/3/19 19/2/19 20/2/19 5/3/19
f 5/3/20 20/2/20 21/2/20 6/3/20
f 6/3/21 21/2/21 22/2/21 7/3/21
f 7/3/22 22/2/22 23/2/22 8/3/22
f 8/3/23 23/2/23 24/2/23 9/3/23
f 9/3/24 24/2/24 25/2/24 10/3/24
f 10/3/25 25/2/25 26/2/25 11/3/25
f 11/3/26 26/2/26 27/2/26 12/3/26
f 12/3/27 27/2/27 28/2/27 13/3/27
f 13/3/28 28/2/28 29/2/28 14/3/28
f 14/3/29 29/2/29 30/2/29 15/3/29
f 16/2/30 82/1/30 83/1/30 17/2/30
f 17/2/31 83/1/31 84/1/31 18/2/31
f 18/2/32 84/1/32 85/1/32 19/2/32
f 19/2/33 85/1/33 86/1/33 20/2/33
f 20/2/34 86/1/34 87/1/34 21/2/34
f 21/2/35 87/1/35 88/1/35 22/2/35
f 22/2/36 88/1/36 89/1/36 23/2/36
f 23/2/37 89/1/37 90/1/37 24/2/37
f 24/2/38 90/1/38 91/1/38 25/2/38
f 25/2/39 91/1/39 92/1/40 26/2/39
f 26/2/41 92/1/41 93/1/41 27/2/41
f 27/2/42 93/1/42 94/1/42 28/2/42
f 28/2/43 94/1/43 95/1/43 29/2/43
f 29/2/44 95/1/44 96/1/44 30/2/44
f 65/4/45 66/1/45 63/2/45 64/3/45
f 114/4/46 115/4/46 32/3/46 31/3/46
f 115/4/47 116/4/47 33/3/47 32/3/47
f 116/4/48 117/4/48 34/3/48 33/3/48
f 117/4/49 118/4/49 35/3/49 34/3/49
f 118/4/50 119/4/50 36/3/50 35/3/50
f 119/4/51 120/4/51 37/3/51 36/3/51
f 120/4/52 121/4/52 38/3/52 37/3/52
f 121/4/53 122/4/53 39/3/53 38/3/53
f 122/4/54 123/4/54 40/3/54 39/3/54
f 123/4/55 124/4/55 41/3/55 40/3/55
f 124/4/56 125/4/56 42/3/56 41/3/56
f 125/4/57 126/4/57 43/3/57 42/3/57
f 126/4/58 127/4/58 44/3/58 43/3/58
f 127/4/59 128/4/59 45/3/59 44/3/59
f 31/3/60 32/3/60 47/2/60 46/2/60
f 32/3/61 33/3/61 48/2/61 47/2/61
f 33/3/62 34/3/62 49/2/62 48/2/62
f 34/3/63 35/3/63 50/2/63 49/2/63
f 35/3/64 36/3/64 51/2/64 50/2/64
f 36/3/65 37/3/65 52/2/65 51/2/65
f 37/3/66 38/3/66 53/2/66 52/2/66
f 38/3/67 39/3/67 54/2/67 53/2/67
f 39/3/68 40/3/68 55/2/68 54/2/68
f 40/3/69 41/3/69 56/2/69 55/2/69
f 41/3/70 42/3/70 57/2/70 56/2/70
f 42/3/71 43/3/71 58/2/71 57/2/71
f 43/3/72 44/3/72 59/2/72 58/2/72
f 44/3/73 45/3/73 60/2/73 59/2/73
f 46/2/74 47/2/74 80/1/74 81/1/74
f 47/2/75 48/2/75 79/1/75 80/1/75
f 48/2/76 49/2/76 78/1/76 79/1/76
f 49/2/77 50/2/77 77/1/77 78/1/77
f 50/2/78 51/2/78 76/1/78 77/1/78
f 51/2/79 52/2/79 75/1/79 76/1/79
f 52/2/80 53/2/80 74/1/80 75/1/80
f 53/2/81 54/2/81 73/1/81 74/1/81
f 54/2/82 55/2/82 72/1/82 73/1/82
f 55/2/83 56/2/83 71/1/83 72/1/83
f 56/2/84 57/2/84 70/1/84 71/1/84
f 57/2/85 58/2/85 69/1/85 70/1/85
f 58/2/86 59/2/86 68/1/86 69/1/86
f 59/2/87 60/2/87 67/1/87 68/1/87
f 1/3/88 113/4/88 114/4/88 31/3/88
f 82/1/89 16/2/89 46/2/89 81/1/89
f 16/2/90 1/3/90 31/3/90 46/2/90
f 99/4/88 15/3/88 61/3/88 98/4/88
f 15/3/91 30/2/91 62/2/91 61/3/91
f 30/2/89 96/1/89 97/1/89 62/2/89
f 129/1/89 130/2/89 63/2/89 66/1/89
f 130/2/93 131/3/93 64/3/92 63/2/92
f 131/3/88 132/4/88 65/4/88 64/3/88
f 67/1/89 60/2/89 130/2/89 129/1/89
f 60/2/94 45/3/94 131/3/93 130/2/93
f 45/3/88 128/4/88 132/4/88 131/3/88
f 97/1/95 96/1/95 99/4/95 98/4/95
f 96/1/95 95/1/95 100/4/95 99/4/95
f 95/1/95 94/1/95 101/4/95 100/4/95
f 94/1/95 93/1/95 102/4/95 101/4/95
f 93/1/95 92/1/95 103/4/95 102/4/95
f 92/1/95 91/1/95 104/4/95 103/4/95
f 91/1/96 90/1/96 105/4/96 104/4/96
f 90/1/96 89/1/96 106/4/96 105/4/96
f 89/1/96 88/1/96 107/4/96 106/4/96
f 88/1/96 87/1/96 108/4/96 107/4/96
f 87/1/96 86/1/96 109/4/96 108/4/96
f 86/1/96 85/1/96 110/4/96 109/4/96
f 85/1/95 84/1/95 111/4/95 110/4/95
f 84/1/95 83/1/95 112/4/95 111/4/95
f 83/1/96 82/1/96 113/4/96 112/4/96
f 82/1/95 81/1/95 114/4/95 113/4/95
f 81/1/95 80/1/95 115/4/95 114/4/95
f 80/1/95 79/1/95 116/4/95 115/4/95
f 79/1/95 78/1/95 117/4/95 116/4/95
f 78/1/95 77/1/95 118/4/95 117/4/95
f 77/1/95 76/1/95 119/4/95 118/4/95
f 76/1/96 75/1/96 120/4/96 119/4/96
f 75/1/95 74/1/95 121/4/95 120/4/95
f 74/1/96 73/1/96 122/4/96 121/4/96
f 73/1/95 72/1/95 123/4/95 122/4/95
f 72/1/96 71/1/96 124/4/96 123/4/96
f 71/1/95 70/1/95 125/4/95 124/4/95
f 70/1/95 69/1/95 126/4/95 125/4/95
f 69/1/95 68/1/95 127/4/95 126/4/95
f 68/1/95 67/1/95 128/4/95 127/4/95
f 67/1/95 129/1/95 132/4/95 128/4/95
f 134/1/95 133/1/95 135/4/95 136/4/95
f 129/1/97 66/1/97 133/1/97 134/1/97
f 66/1/45 65/4/45 135/4/45 133/1/45
f 65/4/98 132/4/98 136/4/98 135/4/98
f 132/4/99 129/1/99 134/1/99 136/4/99

