# WaveFront *.obj file (generated by CINEMA 4D)

mtllib ./Foam.mtl

v 194.75634765625 87.82802581787109 48.921875
v 194.75634765625 87.73023223876953 48.51454162597656
v 194.75634765625 87.56989288330078 48.12752532958984
v 194.75634765625 87.35101318359375 47.77031707763672
v 194.75634765625 87.0789794921875 47.45179748535156
v 194.75634765625 86.76040649414062 47.17971038818359
v 194.75634765625 86.40325164794922 46.96083068847656
v 194.75634765625 86.0162353515625 46.80054473876953
v 194.75634765625 85.60890197753906 46.70275115966797
v 194.75634765625 85.19125366210938 46.66986465454102
v 194.75634765625 84.77365875244141 46.70275115966797
v 194.75634765625 84.36632537841797 46.80054473876953
v 194.75634765625 83.97925567626953 46.96083068847656
v 194.75634765625 83.62210083007812 47.17971038818359
v 194.75634765625 83.30358123779297 47.45179748535156
v 194.75634765625 83.031494140625 47.77031707763672
v 194.75634765625 82.81261444091797 48.12752532958984
v 194.75634765625 82.65232849121094 48.51454162597656
v 194.75634765625 82.55453491210938 48.921875
v 194.75634765625 82.52165222167969 49.33946990966797
v 194.75634765625 82.55453491210938 49.75711822509766
v 194.75634765625 82.65232849121094 50.16445159912109
v 194.75634765625 82.81261444091797 50.55146789550781
v 194.75634765625 83.031494140625 50.90862274169922
v 194.75634765625 83.30358123779297 51.22719573974609
v 194.75634765625 83.62210083007812 51.49922943115234
v 194.75634765625 83.97925567626953 51.71810913085938
v 194.75634765625 84.36632537841797 51.87844848632812
v 194.75634765625 84.77365875244141 51.97623825073242
v 194.75634765625 85.19125366210938 52.00907516479492
v 194.75634765625 85.60890197753906 51.97623825073242
v 194.75634765625 86.0162353515625 51.87844848632812
v 194.75634765625 86.40325164794922 51.71810913085938
v 194.75634765625 86.76040649414062 51.49922943115234
v 194.75634765625 87.0789794921875 51.22719573974609
v 194.75634765625 87.35101318359375 50.90862274169922
v 194.75634765625 87.56989288330078 50.55146789550781
v 194.75634765625 87.73023223876953 50.16445159912109
v 194.75634765625 87.82802581787109 49.75711822509766
v 194.75634765625 87.86086273193359 49.33946990966797
v -116.90605926513672 87.82802581787109 48.921875
v -116.90605926513672 87.73023223876953 48.51454162597656
v -116.90605926513672 87.56989288330078 48.12752532958984
v -116.90605926513672 87.35101318359375 47.77031707763672
v -116.90605926513672 87.0789794921875 47.45179748535156
v -116.90605926513672 86.76040649414062 47.17971038818359
v -116.90605926513672 86.40325164794922 46.96083068847656
v -116.90605926513672 86.0162353515625 46.80054473876953
v -116.90605926513672 85.60890197753906 46.70275115966797
v -116.90605926513672 85.19125366210938 46.66986465454102
v -116.90605926513672 84.77365875244141 46.70275115966797
v -116.90605926513672 84.36632537841797 46.80054473876953
v -116.90605926513672 83.97925567626953 46.96083068847656
v -116.90605926513672 83.62210083007812 47.17971038818359
v -116.90605926513672 83.30358123779297 47.45179748535156
v -116.90605926513672 83.031494140625 47.77031707763672
v -116.90605926513672 82.81261444091797 48.12752532958984
v -116.90605926513672 82.65232849121094 48.51454162597656
v -116.90605926513672 82.55453491210938 48.921875
v -116.90605926513672 82.52165222167969 49.33946990966797
v -116.90605926513672 82.55453491210938 49.75711822509766
v -116.90605926513672 82.65232849121094 50.16445159912109
v -116.90605926513672 82.81261444091797 50.55146789550781
v -116.90605926513672 83.031494140625 50.90862274169922
v -116.90605926513672 83.30358123779297 51.22719573974609
v -116.90605926513672 83.62210083007812 51.49922943115234
v -116.90605926513672 83.97925567626953 51.71810913085938
v -116.90605926513672 84.36632537841797 51.87844848632812
v -116.90605926513672 84.77365875244141 51.97623825073242
v -116.90605926513672 85.19125366210938 52.00907516479492
v -116.90605926513672 85.60890197753906 51.97623825073242
v -116.90605926513672 86.0162353515625 51.87844848632812
v -116.90605926513672 86.40325164794922 51.71810913085938
v -116.90605926513672 86.76040649414062 51.49922943115234
v -116.90605926513672 87.0789794921875 51.22719573974609
v -116.90605926513672 87.35101318359375 50.90862274169922
v -116.90605926513672 87.56989288330078 50.55146789550781
v -116.90605926513672 87.73023223876953 50.16445159912109
v -116.90605926513672 87.82802581787109 49.75711822509766
v -116.90605926513672 87.86086273193359 49.33946990966797
# 80 vertices

vn 0 0.98769265413284 -0.15640707314014
vn 0 0.95105910301208 -0.30900901556015
vn 0 0.8910139799118 -0.45397588610649
vn 0 0.80902791023254 -0.5877702832222
vn 0 0.70710676908493 -0.70710676908493
vn 0 0.58779072761536 -0.80901300907135
vn 0 0.45397588610649 -0.8910139799118
vn 0 0.30900901556015 -0.95105910301208
vn 0 0.15640707314014 -0.98769265413284
vn 0 0 -1
vn 0 -0.15640707314014 -0.98769265413284
vn 0 -0.30897161364555 -0.95107126235962
vn 0 -0.45397588610649 -0.8910139799118
vn 0 -0.58779072761536 -0.80901300907135
vn 0 -0.70710676908493 -0.70710676908493
vn 0 -0.80902791023254 -0.5877702832222
vn 0 -0.8910139799118 -0.45397588610649
vn 0 -0.95105910301208 -0.30900901556015
vn 0 -0.98769265413284 -0.15640707314014
vn 0 -1 0
vn 0 -0.98769265413284 0.15640707314014
vn 0 -0.95105910301208 0.30900901556015
vn 0 -0.8910139799118 0.45397588610649
vn 0 -0.80901300907135 0.58779072761536
vn 0 -0.70710676908493 0.70710676908493
vn 0 -0.58779072761536 0.80901300907135
vn 0 -0.45397588610649 0.8910139799118
vn 0 -0.30900901556015 0.95105910301208
vn 0 -0.15640707314014 0.98769265413284
vn 0 0 1
vn 0 0.15640707314014 0.98769265413284
vn 0 0.30900901556015 0.95105910301208
vn 0 0.45397588610649 0.8910139799118
vn 0 0.58779072761536 0.80901300907135
vn 0 0.70710676908493 0.70710676908493
vn 0 0.80902791023254 0.5877702832222
vn 0 0.8910139799118 0.45397588610649
vn 0 0.95105910301208 0.30900901556015
vn 0 0.98768782615662 0.15643754601479
vn 0 1 0
vn 1 0 0
vn 1 0 0
vn 1 0.00009375292575 0
vn 1 0.00006250195293 0
vn 1 -0.00006250195293 0
vn 1 -0.00009375292575 0
vn -1 0 0
# 47 normals

vt 0.375 0.68844002485275 0
vt 0.38124999403954 0.68844002485275 0
vt 0.38124999403954 0.3125 0
vt 0.375 0.3125 0
vt 0.38749998807907 0.68844002485275 0
vt 0.38749998807907 0.3125 0
vt 0.39375001192093 0.68844002485275 0
vt 0.39375001192093 0.3125 0
vt 0.40000000596046 0.68844002485275 0
vt 0.40000000596046 0.3125 0
vt 0.40625 0.68844002485275 0
vt 0.40625 0.3125 0
vt 0.41249999403954 0.68844002485275 0
vt 0.41249999403954 0.3125 0
vt 0.41874998807907 0.68844002485275 0
vt 0.41874998807907 0.3125 0
vt 0.42500001192093 0.68844002485275 0
vt 0.42500001192093 0.3125 0
vt 0.43125000596046 0.68844002485275 0
vt 0.43125000596046 0.3125 0
vt 0.4375 0.68844002485275 0
vt 0.4375 0.3125 0
vt 0.44374999403954 0.68844002485275 0
vt 0.44374999403954 0.3125 0
vt 0.44999998807907 0.68844002485275 0
vt 0.44999998807907 0.3125 0
vt 0.45625001192093 0.68844002485275 0
vt 0.45625001192093 0.3125 0
vt 0.46250000596046 0.68844002485275 0
vt 0.46250000596046 0.3125 0
vt 0.46875 0.68844002485275 0
vt 0.46875 0.3125 0
vt 0.47499999403954 0.68844002485275 0
vt 0.47499999403954 0.3125 0
vt 0.48124998807907 0.68844002485275 0
vt 0.48124998807907 0.3125 0
vt 0.48750001192093 0.68844002485275 0
vt 0.48750001192093 0.3125 0
vt 0.49375000596046 0.68844002485275 0
vt 0.49375000596046 0.3125 0
vt 0.5 0.68844002485275 0
vt 0.5 0.3125 0
vt 0.50625002384186 0.68844002485275 0
vt 0.50625002384186 0.3125 0
vt 0.51249998807907 0.68844002485275 0
vt 0.51249998807907 0.3125 0
vt 0.51875001192093 0.68844002485275 0
vt 0.51875001192093 0.3125 0
vt 0.52499997615814 0.68844002485275 0
vt 0.52499997615814 0.3125 0
vt 0.53125 0.68844002485275 0
vt 0.53125 0.3125 0
vt 0.53750002384186 0.68844002485275 0
vt 0.53750002384186 0.3125 0
vt 0.54374998807907 0.68844002485275 0
vt 0.54374998807907 0.3125 0
vt 0.55000001192093 0.68844002485275 0
vt 0.55000001192093 0.3125 0
vt 0.55624997615814 0.68844002485275 0
vt 0.55624997615814 0.3125 0
vt 0.5625 0.68844002485275 0
vt 0.5625 0.3125 0
vt 0.56875002384186 0.68844002485275 0
vt 0.56875002384186 0.3125 0
vt 0.57499998807907 0.68844002485275 0
vt 0.57499998807907 0.3125 0
vt 0.58125001192093 0.68844002485275 0
vt 0.58125001192093 0.3125 0
vt 0.58749997615814 0.68844002485275 0
vt 0.58749997615814 0.3125 0
vt 0.59375 0.68844002485275 0
vt 0.59375 0.3125 0
vt 0.60000002384186 0.68844002485275 0
vt 0.60000002384186 0.3125 0
vt 0.60624998807907 0.68844002485275 0
vt 0.60624998807907 0.3125 0
vt 0.61250001192093 0.68844002485275 0
vt 0.61250001192093 0.3125 0
vt 0.61874997615814 0.68844002485275 0
vt 0.61874997615814 0.3125 0
vt 0.625 0.68844002485275 0
vt 0.625 0.3125 0
vt 0.63921999931335 0.08531403541565 0
vt 0.61048597097397 0.04576504230499 0
vt 0.5918419957161 0.0298410654068 0
vt 0.54828399419785 0.0076470375061 0
vt 0.52444297075272 0.00192403793335 0
vt 0.47555699944496 0.00192403793335 0
vt 0.45171600580215 0.0076470375061 0
vt 0.38951501250267 0.04576408863068 0
vt 0.59184098243713 0.28265905380249 0
vt 0.62640899419785 0.24809098243713 0
vt 0.65625 0.15625 0
vt 0.570936024189 0.01703000068665 0
vt 0.5 0 0
vt 0.42906400561333 0.01703000068665 0
vt 0.40815898776054 0.0298410654068 0
vt 0.37359100580215 0.06440806388855 0
vt 0.36078000068665 0.08531403541565 0
vt 0.35139700770378 0.1079660654068 0
vt 0.64860302209854 0.1079660654068 0
vt 0.6543260216713 0.13180708885193 0
vt 0.62640899419785 0.06440901756287 0
vt 0.34567400813103 0.13180708885193 0
vt 0.34375 0.15625 0
vt 0.34567400813103 0.18069303035736 0
vt 0.40815898776054 0.28265905380249 0
vt 0.35139700770378 0.20453405380249 0
vt 0.37359100580215 0.24809098243713 0
vt 0.36078000068665 0.22718608379364 0
vt 0.38951501250267 0.2667350769043 0
vt 0.42906400561333 0.29546999931335 0
vt 0.45171600580215 0.30485308170319 0
vt 0.47555699944496 0.31057608127594 0
vt 0.52444297075272 0.31057608127594 0
vt 0.570936024189 0.29546999931335 0
vt 0.54828399419785 0.30485308170319 0
vt 0.61048501729965 0.2667350769043 0
vt 0.63921999931335 0.22718608379364 0
vt 0.64860302209854 0.20453405380249 0
vt 0.6543260216713 0.18069303035736 0
vt 0.5 0.6875 0
vt 0.34567400813103 0.86819303035736 0
vt 0.35139700770378 0.89203399419785 0
vt 0.38951501250267 0.95423501729965 0
vt 0.40815898776054 0.71734100580215 0
vt 0.38951501250267 0.73326402902603 0
vt 0.37359100580215 0.7519080042839 0
vt 0.65625 0.84375 0
vt 0.6543260216713 0.81930696964264 0
vt 0.64860302209854 0.79546600580215 0
vt 0.63921999931335 0.77281403541565 0
vt 0.62640899419785 0.75190901756287 0
vt 0.63921999931335 0.914686024189 0
vt 0.5918419957161 0.71734100580215 0
vt 0.64860302209854 0.89203399419785 0
vt 0.6543260216713 0.86819303035736 0
vt 0.61048597097397 0.73326504230499 0
vt 0.570936024189 0.70453000068665 0
vt 0.52444297075272 0.68942403793335 0
vt 0.54828399419785 0.6951470375061 0
vt 0.47555699944496 0.68942403793335 0
vt 0.45171600580215 0.6951470375061 0
vt 0.42906400561333 0.70453000068665 0
vt 0.34567400813103 0.81930696964264 0
vt 0.54828399419785 0.99235302209854 0
vt 0.59184098243713 0.97015899419785 0
vt 0.61048501729965 0.95423501729965 0
vt 0.62640899419785 0.93559098243713 0
vt 0.35139700770378 0.79546600580215 0
vt 0.36078000068665 0.77281403541565 0
vt 0.34375 0.84375 0
vt 0.36078000068665 0.914686024189 0
vt 0.37359100580215 0.93559098243713 0
vt 0.45171600580215 0.99235302209854 0
vt 0.40815898776054 0.97015899419785 0
vt 0.42906400561333 0.98296999931335 0
vt 0.47555699944496 0.9980760216713 0
vt 0.5 1 0
vt 0.52444297075272 0.9980760216713 0
vt 0.570936024189 0.98296999931335 0
# 161 texture coordinates

o Foam
usemtl Foam
f 1/4/1 2/3/2 42/2/2 41/1/1
f 2/3/2 3/6/3 43/5/3 42/2/2
f 3/6/3 4/8/4 44/7/4 43/5/3
f 4/8/4 5/10/5 45/9/5 44/7/4
f 5/10/5 6/12/6 46/11/6 45/9/5
f 6/12/6 7/14/7 47/13/7 46/11/6
f 7/14/7 8/16/8 48/15/8 47/13/7
f 8/16/8 9/18/9 49/17/9 48/15/8
f 9/18/9 10/20/10 50/19/10 49/17/9
f 10/20/10 11/22/11 51/21/11 50/19/10
f 11/22/11 12/24/12 52/23/12 51/21/11
f 12/24/12 13/26/13 53/25/13 52/23/12
f 13/26/13 14/28/14 54/27/14 53/25/13
f 14/28/14 15/30/15 55/29/15 54/27/14
f 15/30/15 16/32/16 56/31/16 55/29/15
f 16/32/16 17/34/17 57/33/17 56/31/16
f 17/34/17 18/36/18 58/35/18 57/33/17
f 18/36/18 19/38/19 59/37/19 58/35/18
f 19/38/19 20/40/20 60/39/20 59/37/19
f 20/40/20 21/42/21 61/41/21 60/39/20
f 21/42/21 22/44/22 62/43/22 61/41/21
f 22/44/22 23/46/23 63/45/23 62/43/22
f 23/46/23 24/48/24 64/47/24 63/45/23
f 24/48/24 25/50/25 65/49/25 64/47/24
f 25/50/25 26/52/26 66/51/26 65/49/25
f 26/52/26 27/54/27 67/53/27 66/51/26
f 27/54/27 28/56/28 68/55/28 67/53/27
f 28/56/28 29/58/29 69/57/29 68/55/28
f 29/58/29 30/60/30 70/59/30 69/57/29
f 30/60/30 31/62/31 71/61/31 70/59/30
f 31/62/31 32/64/32 72/63/32 71/61/31
f 32/64/32 33/66/33 73/65/33 72/63/32
f 33/66/33 34/68/34 74/67/34 73/65/33
f 34/68/34 35/70/35 75/69/35 74/67/34
f 35/70/35 36/72/36 76/71/36 75/69/35
f 36/72/36 37/74/37 77/73/37 76/71/36
f 37/74/37 38/76/38 78/75/38 77/73/37
f 38/76/38 39/78/39 79/77/39 78/75/38
f 39/78/39 40/80/40 80/79/40 79/77/39
f 40/80/40 1/82/1 41/81/1 80/79/40
f 2/101/42 1/102/42 40/93/42 39/121/41 38/120/41 37/119/41 36/92/41 35/118/43 34/91/43 33/116/43 32/117/42 31/115/46 30/42/42 29/114/43 28/113/42 27/112/46 26/107/41 25/111/41 24/109/41 23/110/42 22/108/42 21/106/42 20/105/42 19/104/42 18/100/42 17/99/41 16/98/42 15/90/42 14/97/42 13/96/45 12/89/42 11/88/42 10/95/42 9/87/42 8/86/42 7/94/44 6/85/42 5/84/42 4/103/42 3/83/41
f 41/137/47 42/136/47 43/134/47 44/149/47 45/148/47 46/147/47 47/161/47 48/146/47 49/160/47 50/159/47 51/158/47 52/155/47 53/157/47 54/156/47 55/125/47 56/154/47 57/153/47 58/124/47 59/123/47 60/152/47 61/145/47 62/150/47 63/151/47 64/128/47 65/127/47 66/126/47 67/144/47 68/143/47 69/142/47 70/122/47 71/140/47 72/141/47 73/139/47 74/135/47 75/138/47 76/133/47 77/132/47 78/131/47 79/130/47 80/129/47

