# WaveFront *.obj file (generated by CINEMA 4D)

mtllib ./Marker.mtl

v 192.43058776855469 89.29985809326172 50.26153182983398
v 192.43058776855469 89.27590179443359 49.99457931518555
v 192.43058776855469 89.23521423339844 49.72695541381836
v 192.43058776855469 89.17667388916016 49.45856475830078
v 192.43058776855469 89.10047912597656 49.19217300415039
v 192.43058776855469 89.00894165039062 48.93496704101562
v 192.43058776855469 88.90422821044922 48.69340896606445
v 192.43058776855469 88.78806304931641 48.47344970703125
v 192.43058776855469 88.68637084960938 48.26862716674805
v 192.43058776855469 88.57503509521484 48.05615997314453
v 192.43058776855469 88.46210479736328 47.8031120300293
v 192.43058776855469 88.34671020507812 47.47084045410156
v 192.43058776855469 88.26030731201172 46.9827995300293
v 192.43058776855469 88.23558044433594 46.21389770507812
v 192.43058776855469 88.22413635253906 45.110107421875
v 192.43057250976562 88.90986633300781 50.27646255493164
v 192.43057250976562 88.88749694824219 50.03572845458984
v 192.43057250976562 88.85019683837891 49.79560470581055
v 192.43057250976562 88.79694366455078 49.55548477172852
v 192.43057250976562 88.72772216796875 49.31679916381836
v 192.43057250976562 88.64481353759766 49.08621978759766
v 192.43057250976562 88.55097198486328 48.87221527099609
v 192.43057250976562 88.47000885009766 48.68237686157227
v 192.43057250976562 88.37852478027344 48.49987411499023
v 192.43057250976562 88.26431274414062 48.28755950927734
v 192.43057250976562 88.13814544677734 48.01716613769531
v 192.43057250976562 88.00576782226562 47.65467834472656
v 192.43057250976562 87.89627838134766 47.10434722900391
v 192.43057250976562 87.84861755371094 46.26853942871094
v 192.43057250976562 87.83393859863281 45.110107421875
v 192.43058776855469 89.29985809326172 50.49698638916016
v 192.43058776855469 89.27590179443359 50.76394271850586
v 192.43058776855469 89.23521423339844 51.03156280517578
v 192.43058776855469 89.17667388916016 51.29995727539062
v 192.43058776855469 89.10047912597656 51.56634902954102
v 192.43058776855469 89.00894165039062 51.82355499267578
v 192.43058776855469 88.90422821044922 52.06511306762695
v 192.43058776855469 88.78806304931641 52.28512191772461
v 192.43058776855469 88.68637084960938 52.48989105224609
v 192.43058776855469 88.57503509521484 52.70235824584961
v 192.43058776855469 88.46210479736328 52.95541000366211
v 192.43058776855469 88.34671020507812 53.2877311706543
v 192.43058776855469 88.26030731201172 53.77572250366211
v 192.43058776855469 88.23558044433594 54.54462432861328
v 192.43058776855469 88.22413635253906 55.64476776123047
v 192.43057250976562 88.90986633300781 50.48210525512695
v 192.43057250976562 88.88749694824219 50.72279357910156
v 192.43057250976562 88.85019683837891 50.96291351318359
v 192.43057250976562 88.79694366455078 51.20303726196289
v 192.43057250976562 88.72772216796875 51.4417724609375
v 192.43057250976562 88.64481353759766 51.67234802246094
v 192.43057250976562 88.55097198486328 51.88630294799805
v 192.43057250976562 88.47000885009766 52.07614517211914
v 192.43057250976562 88.37852478027344 52.25864791870117
v 192.43057250976562 88.26431274414062 52.4709587097168
v 192.43057250976562 88.13819885253906 52.74135208129883
v 192.43057250976562 88.00576782226562 53.10384368896484
v 192.43057250976562 87.89627838134766 53.65417098999023
v 192.43057250976562 87.84861755371094 54.49003219604492
v 192.43057250976562 87.83393859863281 55.64476776123047
v 192.43055725097656 88.22413635253906 -3.84321403503418
v 192.43055725097656 87.83393859863281 -3.84321403503418
v 192.43055725097656 87.83393859863281 104.59814453125
v 192.43055725097656 88.22413635253906 104.59803771972656
v -117.91651153564453 88.22806549072266 104.59803771972656
v -117.91651153564453 87.83786773681641 104.59814453125
v -117.91651153564453 87.83786773681641 55.64476776123047
v -117.91651153564453 87.85254669189453 54.49053192138672
v -117.91651153564453 87.89547729492188 53.65534210205078
v -117.91651153564453 88.00108337402344 53.10568237304688
v -117.91651153564453 88.12974548339844 52.74352264404297
v -117.91651153564453 88.25215148925781 52.47325897216797
v -117.91651153564453 88.36515045166016 52.26099014282227
v -117.91651153564453 88.45667266845703 52.07819366455078
v -117.91651153564453 88.5545654296875 51.88809967041016
v -117.91651153564453 88.64849853515625 51.67385482788086
v -117.91651153564453 88.73152160644531 51.44302368164062
v -117.91651153564453 88.80078125 51.20404052734375
v -117.91651153564453 88.8541259765625 50.96362686157227
v -117.91651153564453 88.89147186279297 50.72320938110352
v -117.91651153564453 88.91380310058594 50.48223495483398
v -117.91651153564453 88.91380310058594 50.27629852294922
v -117.91651153564453 88.89147186279297 50.03530883789062
v -117.91651153564453 88.8541259765625 49.79493713378906
v -117.91651153564453 88.80078125 49.55448150634766
v -117.91651153564453 88.73152160644531 49.31554794311523
v -117.91651153564453 88.64849853515625 49.08467483520508
v -117.91651153564453 88.5545654296875 48.87042236328125
v -117.91651153564453 88.45667266845703 48.68032836914062
v -117.91651153564453 88.36506652832031 48.49757385253906
v -117.91651153564453 88.25215148925781 48.28526306152344
v -117.91651153564453 88.12973785400391 48.01499176025391
v -117.91651153564453 88.00108337402344 47.65283966064453
v -117.91651153564453 87.89547729492188 47.10317611694336
v -117.91651153564453 87.85254669189453 46.26799774169922
v -117.91651153564453 87.83786773681641 45.110107421875
v -117.91651153564453 87.83786773681641 -3.84321403503418
v -117.91651153564453 88.22806549072266 -3.84313106536865
v -117.91651153564453 88.22806549072266 45.11015319824219
v -117.91651153564453 88.23946380615234 46.21331024169922
v -117.91651153564453 88.26378631591797 46.98154449462891
v -117.91651153564453 88.34989166259766 47.46895980834961
v -117.91651153564453 88.46490478515625 47.80093765258789
v -117.91651153564453 88.57754516601562 48.05377960205078
v -117.91651153564453 88.68963623046875 48.2662467956543
v -117.91651153564453 88.79145812988281 48.47127532958984
v -117.91651153564453 88.90774536132812 48.69157028198242
v -117.91651153564453 89.0125732421875 48.93337631225586
v -117.91651153564453 89.10424041748047 49.19087600708008
v -117.91651153564453 89.18051910400391 49.45755767822266
v -117.91651153564453 89.23909759521484 49.72620391845703
v -117.91651153564453 89.27978515625 49.99411773681641
v -117.91651153564453 89.30378723144531 50.26136779785156
v -117.91651153564453 89.30378723144531 50.49719619750977
v -117.91651153564453 89.27978515625 50.764404296875
v -117.91651153564453 89.23909759521484 51.03231430053711
v -117.91651153564453 89.18051910400391 51.30100250244141
v -117.91651153564453 89.10424041748047 51.56764602661133
v -117.91651153564453 89.0125732421875 51.82514572143555
v -117.91651153564453 88.90774536132812 52.06695175170898
v -117.91651153564453 88.79145812988281 52.28725433349609
v -117.91651153564453 88.68963623046875 52.49227523803711
v -117.91651153564453 88.57754516601562 52.70474243164062
v -117.91651153564453 88.46490478515625 52.95758056640625
v -117.91651153564453 88.34989166259766 53.28956985473633
v -117.91651153564453 88.26378631591797 53.7769775390625
v -117.91651153564453 88.23946380615234 54.54520797729492
v -117.91651153564453 88.22806549072266 55.64476776123047
v -129.41624450683594 88.22821044921875 104.59803771972656
v -129.41624450683594 87.8380126953125 104.59814453125
v -117.91651916503906 88.22806549072266 72.85050964355469
v 192.43057250976562 88.22413635253906 72.85050964355469
v 192.43057250976562 87.83393859863281 72.85054016113281
v -117.91651916503906 87.83786773681641 72.85054016113281
v -129.416259765625 87.8380126953125 72.85054016113281
v -129.416259765625 88.22821044921875 72.85050964355469
# 136 vertices

vn 0 0.00009375292575 -1
vn 0 0.99599778652191 -0.08937760442495
vn 0 0.98865216970444 -0.15022288262844
vn 0 0.97704476118088 -0.2130341976881
vn 0 0.96144372224808 -0.27500176429749
vn 0 0.96144133806229 -0.27501004934311
vn 0 0.94210547208786 -0.33531665802002
vn 0 0.91750621795654 -0.39772143959999
vn 0 0.88430124521256 -0.46691679954529
vn 0 0.89564883708954 -0.44476187229156
vn 0 0.88512217998505 -0.46535870432854
vn 0 0.91331082582474 -0.40726318955421
vn 0 0.94478225708008 -0.32769870758057
vn 0 0.98472338914871 -0.17412582039833
vn 0 0.99949181079864 -0.03187573701143
vn 0 0.99994683265686 -0.01031259726733
vn 1 -0.00003125097646 0
vn 1 -0.00006250195293 0
vn 1 0 0
vn 0 -0.99572134017944 0.09240648895502
vn 0 -0.98815286159515 0.1534730643034
vn 0 -0.97627449035645 0.21653668582439
vn 0 -0.96045303344727 0.27844199538231
vn 0 -0.94101005792618 0.33837860822678
vn 0 -0.91584002971649 0.40154331922531
vn 0 -0.90477621555328 0.4258873462677
vn 0.00003125093281 -0.89396423101425 0.44813838601112
vn 0.00003125049625 -0.88179522752762 0.47163248062134
vn 0 -0.90857398509979 0.41772401332855
vn 0 -0.94081926345825 0.33890870213509
vn 0 -0.98141300678253 0.19190755486488
vn 0 -0.99853587150574 0.05409399792552
vn 0 -0.99991989135742 0.01265642326325
vn 0 0.0002500078117 0.99999994039536
vn 0 0.99599778652191 0.08937760442495
vn 0 0.98865216970444 0.15022288262844
vn 0 0.97704476118088 0.2130341976881
vn 0 0.96143311262131 0.2750389277935
vn 0 0.94210547208786 0.33531665802002
vn 0 0.91750621795654 0.39772143959999
vn 0 0.88433384895325 0.46685501933098
vn 0 0.89561778306961 0.44482442736626
vn 0 0.88512217998505 0.46535870432854
vn 0 0.91331082582474 0.40726318955421
vn 0 0.94479531049728 0.32766112685204
vn 0 0.98472338914871 0.17412582039833
vn 0 0.99949181079864 0.03187573701143
vn 0 0.99994647502899 0.01034384313971
vn 0 -0.99572134017944 -0.09240648895502
vn 0 -0.98815286159515 -0.1534730643034
vn 0 -0.97626787424088 -0.21656645834446
vn 0 -0.96046137809753 -0.27841320633888
vn 0 -0.94099652767181 -0.33841624855995
vn 0 -0.91582852602005 -0.40156954526901
vn 0 -0.90477621555328 -0.4258873462677
vn 0.00003125094372 -0.89408946037292 -0.44788846373558
vn 0.00003125071817 -0.88167643547058 -0.47185453772545
vn 0 -0.9086149930954 -0.417634755373
vn 0 -0.94079571962357 -0.33897396922112
vn 0 -0.98141300678253 -0.19190755486488
vn 0 -0.99853587150574 -0.05409399792552
vn 0 -0.99991953372955 -0.01268766820431
vn 0 1 0
vn 0 -1 0
vn 1 0 0
vn 1 0.00003125097646 0
vn -1 0 0
vn 0 -0.00006250195293 -1
vn -1 0 0
vn -1 0.00003125097646 0
vn -1 -0.00003125097646 0
# 71 normals

vt 0.42133501172066 0.25 0
vt 0.625 0.25 0
vt 0.625 0 0
vt 0.42133501172066 0 0
vt 0.41363900899887 0.25 0
vt 0.41363900899887 0 0
# 6 texture coordinates

o Marker
usemtl Marker
f 98/4/1 61/3/1 62/2/1 97/1/1
f 113/4/2 1/3/2 2/3/2 112/4/2
f 112/4/3 2/3/3 3/3/3 111/4/3
f 111/4/4 3/3/4 4/3/4 110/4/4
f 110/4/5 4/3/5 5/3/6 109/4/5
f 109/4/7 5/3/7 6/3/7 108/4/7
f 108/4/8 6/3/8 7/3/8 107/4/8
f 107/4/9 7/3/9 8/3/9 106/4/9
f 106/4/10 8/3/10 9/3/10 105/4/10
f 105/4/11 9/3/11 10/3/11 104/4/11
f 104/4/12 10/3/12 11/3/12 103/4/12
f 103/4/13 11/3/13 12/3/13 102/4/13
f 102/4/14 12/3/14 13/3/14 101/4/14
f 101/4/15 13/3/15 14/3/15 100/4/15
f 100/4/16 14/3/16 15/3/16 99/4/16
f 1/3/17 16/2/17 17/2/17 2/3/17
f 2/3/18 17/2/18 18/2/18 3/3/18
f 3/3/18 18/2/18 19/2/18 4/3/18
f 4/3/19 19/2/19 20/2/19 5/3/19
f 5/3/17 20/2/17 21/2/17 6/3/17
f 6/3/17 21/2/17 22/2/17 7/3/17
f 7/3/17 22/2/17 23/2/17 8/3/17
f 8/3/18 23/2/18 24/2/18 9/3/18
f 9/3/19 24/2/19 25/2/19 10/3/19
f 10/3/17 25/2/17 26/2/17 11/3/17
f 11/3/17 26/2/17 27/2/17 12/3/17
f 12/3/18 27/2/18 28/2/18 13/3/18
f 13/3/17 28/2/17 29/2/17 14/3/17
f 14/3/17 29/2/17 30/2/17 15/3/17
f 16/2/20 82/1/20 83/1/20 17/2/20
f 17/2/21 83/1/21 84/1/21 18/2/21
f 18/2/22 84/1/22 85/1/22 19/2/22
f 19/2/23 85/1/23 86/1/23 20/2/23
f 20/2/24 86/1/24 87/1/24 21/2/24
f 21/2/25 87/1/25 88/1/25 22/2/25
f 22/2/26 88/1/26 89/1/26 23/2/26
f 23/2/27 89/1/27 90/1/27 24/2/27
f 24/2/28 90/1/28 91/1/28 25/2/28
f 25/2/29 91/1/29 92/1/29 26/2/29
f 26/2/30 92/1/30 93/1/30 27/2/30
f 27/2/31 93/1/31 94/1/31 28/2/31
f 28/2/32 94/1/32 95/1/32 29/2/32
f 29/2/33 95/1/33 96/1/33 30/2/33
f 65/4/34 66/1/34 63/2/34 64/3/34
f 114/4/35 115/4/35 32/3/35 31/3/35
f 115/4/36 116/4/36 33/3/36 32/3/36
f 116/4/37 117/4/37 34/3/37 33/3/37
f 117/4/38 118/4/38 35/3/38 34/3/38
f 118/4/39 119/4/39 36/3/39 35/3/39
f 119/4/40 120/4/40 37/3/40 36/3/40
f 120/4/41 121/4/41 38/3/41 37/3/41
f 121/4/42 122/4/42 39/3/42 38/3/42
f 122/4/43 123/4/43 40/3/43 39/3/43
f 123/4/44 124/4/44 41/3/44 40/3/44
f 124/4/45 125/4/45 42/3/45 41/3/45
f 125/4/46 126/4/46 43/3/46 42/3/46
f 126/4/47 127/4/47 44/3/47 43/3/47
f 127/4/48 128/4/48 45/3/48 44/3/48
f 31/3/19 32/3/19 47/2/19 46/2/19
f 32/3/19 33/3/19 48/2/19 47/2/19
f 33/3/19 34/3/19 49/2/19 48/2/19
f 34/3/19 35/3/19 50/2/19 49/2/19
f 35/3/19 36/3/19 51/2/19 50/2/19
f 36/3/19 37/3/19 52/2/19 51/2/19
f 37/3/17 38/3/17 53/2/17 52/2/17
f 38/3/18 39/3/18 54/2/18 53/2/18
f 39/3/19 40/3/19 55/2/19 54/2/19
f 40/3/17 41/3/17 56/2/17 55/2/17
f 41/3/17 42/3/17 57/2/17 56/2/17
f 42/3/19 43/3/19 58/2/19 57/2/19
f 43/3/17 44/3/17 59/2/17 58/2/17
f 44/3/17 45/3/17 60/2/17 59/2/17
f 46/2/49 47/2/49 80/1/49 81/1/49
f 47/2/50 48/2/50 79/1/50 80/1/50
f 48/2/51 49/2/51 78/1/51 79/1/51
f 49/2/52 50/2/52 77/1/52 78/1/52
f 50/2/53 51/2/53 76/1/53 77/1/53
f 51/2/54 52/2/54 75/1/54 76/1/54
f 52/2/55 53/2/55 74/1/55 75/1/55
f 53/2/56 54/2/56 73/1/56 74/1/56
f 54/2/57 55/2/57 72/1/57 73/1/57
f 55/2/58 56/2/58 71/1/58 72/1/58
f 56/2/59 57/2/59 70/1/59 71/1/59
f 57/2/60 58/2/60 69/1/60 70/1/60
f 58/2/61 59/2/61 68/1/61 69/1/61
f 59/2/62 60/2/62 67/1/62 68/1/62
f 1/3/63 113/4/63 114/4/63 31/3/63
f 82/1/64 16/2/64 46/2/64 81/1/64
f 16/2/17 1/3/17 31/3/17 46/2/17
f 99/4/63 15/3/63 61/3/63 98/4/63
f 15/3/65 30/2/65 62/2/65 61/3/65
f 30/2/64 96/1/64 97/1/64 62/2/64
f 67/1/64 60/2/64 133/2/64 134/1/64
f 60/2/65 45/3/65 132/3/19 133/2/19
f 45/3/63 128/4/63 131/4/63 132/3/63
f 129/6/34 130/5/34 66/1/34 65/4/34
f 132/3/63 131/4/63 65/4/63 64/3/63
f 133/2/19 132/3/19 64/3/66 63/2/66
f 134/1/64 133/2/64 63/2/64 66/1/64
f 135/5/64 134/1/64 66/1/64 130/5/64
f 65/4/63 131/4/63 136/6/63 129/6/63
f 135/5/67 130/5/67 129/6/67 136/6/67
f 134/1/68 135/5/68 136/6/68 131/4/68
f 97/1/69 96/1/69 99/4/69 98/4/69
f 96/1/67 95/1/67 100/4/67 99/4/67
f 95/1/67 94/1/67 101/4/67 100/4/67
f 94/1/70 93/1/70 102/4/70 101/4/70
f 93/1/67 92/1/67 103/4/67 102/4/67
f 92/1/67 91/1/67 104/4/67 103/4/67
f 91/1/67 90/1/67 105/4/67 104/4/67
f 90/1/69 89/1/69 106/4/69 105/4/69
f 89/1/69 88/1/69 107/4/69 106/4/69
f 88/1/69 87/1/69 108/4/69 107/4/69
f 87/1/67 86/1/67 109/4/67 108/4/67
f 86/1/69 85/1/69 110/4/69 109/4/69
f 85/1/67 84/1/67 111/4/67 110/4/67
f 84/1/67 83/1/67 112/4/67 111/4/67
f 83/1/69 82/1/69 113/4/69 112/4/69
f 82/1/67 81/1/67 114/4/67 113/4/67
f 81/1/67 80/1/67 115/4/67 114/4/67
f 80/1/67 79/1/67 116/4/67 115/4/67
f 79/1/67 78/1/67 117/4/67 116/4/67
f 78/1/69 77/1/69 118/4/69 117/4/69
f 77/1/69 76/1/69 119/4/69 118/4/69
f 76/1/71 75/1/71 120/4/71 119/4/71
f 75/1/69 74/1/69 121/4/69 120/4/69
f 74/1/67 73/1/67 122/4/67 121/4/67
f 73/1/70 72/1/70 123/4/70 122/4/70
f 72/1/67 71/1/67 124/4/67 123/4/67
f 71/1/69 70/1/69 125/4/69 124/4/69
f 70/1/67 69/1/67 126/4/67 125/4/67
f 69/1/69 68/1/69 127/4/69 126/4/69
f 68/1/67 67/1/67 128/4/67 127/4/67
f 67/1/69 134/1/69 131/4/69 128/4/69

